<?xml version="1.0" encoding="utf-8" ?><svg xmlns="http://www.w3.org/2000/svg" xmlns:xlink="http://www.w3.org/1999/xlink" width="1024" height="1024" viewBox="0 0 1024 1024"><path fill="#FFFFFF" stroke="#000000" stroke-width="10" d="M589.829 50.6373C593.529 50.2677 597.259 50.3603 600.935 50.9127C615.301 53.1572 625.3 60.1692 633.199 72.029C642.748 86.365 651.827 101.315 661.034 115.883L708.751 190.532L832.968 382.423L933.075 537.004L961.676 581.134C978.523 607.182 997.996 632.037 964.655 655.841C968.914 665.236 973.857 673.953 976.962 683.722C983.011 702.759 974.918 725.458 957.191 735.171C946.81 740.859 934.616 745.891 923.711 750.88L859.934 780.117L632.473 885.005L507.202 942.358L470.754 959.193C460.591 963.859 449.788 969.079 439.055 972.113C416.955 976.45 393.599 969.042 379.609 950.967C373.643 943.26 368.67 935.033 363.4 926.845C356.752 916.535 350.003 906.291 343.153 896.115L221.017 712.185L96.8228 530.673C78.7924 504.446 59.5948 478.926 42.5349 452.071C24.1529 423.134 31.19 396.003 54.1731 372.92C53.604 357.441 54.2169 340.247 54.0611 324.673C53.9742 315.988 53.6494 301.751 54.5848 293.392C61.1506 288.164 75.0171 282.483 83.1279 278.858L116.913 263.732C158.93 244.361 201.046 225.204 243.259 206.263L476.688 99.4807L537.228 71.6496C553.169 64.255 572.86 53.4116 589.829 50.6373Z"/><path fill="#7AA7EC" stroke="#000000" stroke-width="10" d="M593.305 57.7051C603.988 56.8135 618.264 63.3647 624.497 72.238C632.466 83.5836 639.647 95.7411 647.087 107.477L687.735 171.006L830.44 392.437L922.4 534.031C933.13 550.316 943.76 566.667 954.287 583.083C965.03 599.689 984.117 620.695 969.909 640.433C964.177 648.396 951.404 653.303 942.596 657.474L906.183 674.418L792.782 727.243L453.798 885.967C432.268 850.528 408.84 814.035 386.607 778.909C381.862 782.67 377.53 785.276 373.003 789.809C360.892 801.887 355.71 820.112 356.581 836.88C357.097 846.809 359.436 851.896 348.197 854.802C363.601 880.027 380.887 904.471 396.739 929.418C403.101 939.431 409.834 944.784 421.581 946.88C428.521 948.117 435.241 946.972 441.758 944.261C454.38 938.869 466.936 932.771 479.417 927.01L550.802 894.115L781.264 787.925C825.415 767.902 869.446 747.617 913.355 727.069C921.618 723.222 946.396 712.588 952.422 708.444C959.587 703.516 954.085 670.371 955.634 658.267C959.315 661.874 962.069 667.893 964.243 672.523C970.28 685.375 973.948 696.649 968.748 710.464C966.465 716.529 961.09 723.794 955.565 727.002C947.614 731.618 936.937 735.977 928.451 739.879C914.264 746.519 900.116 753.243 886.007 760.049C823.423 789.952 760.482 819.103 697.198 847.496L528.549 924.724L473.821 949.897C463.932 954.442 453.384 959.606 443.389 963.57C424.961 971.216 395.687 963.093 384.578 946.188C371.653 926.518 358.612 906.291 345.584 886.485L250.489 743.738L104.595 529.02L66.802 474.575C54.89 457.51 40.3412 442.277 40.3159 420.25C40.2979 404.628 43.6028 394.031 54.5012 382.702C54.5278 387.675 53.562 418.822 55.4952 420.918L56.9575 419.088C58.2835 420.227 57.9098 425.307 58.7343 426.631C73.3601 450.108 91.0835 473.494 106.885 496.138C106.779 494.869 106.723 493.596 106.717 492.322C106.208 430.29 155.346 408.477 209.624 405.946C216.152 405.642 232.073 406.467 236.786 411.545C238.056 412.931 238.679 414.79 238.501 416.662C238.29 418.803 236.862 421.002 235.099 422.268C224.127 429.406 217.356 411.702 204.849 411.618C181.921 411.466 156.231 418.669 138.455 432.925C123.92 444.4 114.657 461.278 112.785 479.702C112.369 483.899 111.614 495.501 114.203 498.632C115.847 499.206 115.067 499.224 116.623 498.714C118.559 496.752 118.359 483.41 118.961 479.144C119.602 474.449 120.672 469.823 122.158 465.323C132.017 435.882 160.192 422.871 189.222 419.636C209.584 417.367 207.545 423.834 223.595 431.834C230.073 435.063 242.137 429.451 243.366 421.064C245.176 411.829 238.134 407.145 229.739 405.493C205.234 400.672 165.949 406.141 145.171 420.131C141.799 416.237 136.99 409.161 133.904 404.746C124.61 391.45 116.018 378.099 106.473 364.936C89.2392 375.179 81.7268 388.369 80.4216 408.782C80.0685 414.303 81.638 424.942 78.4165 429.645C77.1543 431.458 75.1792 432.649 72.9858 432.918C67.6115 433.54 65.5761 428.781 64.8501 424.324C62.1445 407.717 62.4623 390.935 62.2728 374.166C62.2304 348.653 61.9755 323.142 61.5081 297.633C69.3159 293.404 77.9169 289.843 86.0306 286.11C102.225 278.565 118.498 271.19 134.847 263.987L249.676 211.745L452.381 118.709L535.879 80.0947C545.641 75.5527 555.442 71.093 565.28 66.7161C575.947 61.9754 581.554 58.8 593.305 57.7051Z"/><path fill="#FFFFFF" stroke="#000000" stroke-width="10" d="M690.528 292.608C705.786 291.166 719.061 295.303 728.397 307.953C742.625 327.228 755.205 347.526 768.277 367.581L837.315 473.614C855.236 501.148 873.285 528.668 890.998 556.348C896.796 565.408 904.537 577.16 909.194 586.802C912.15 592.921 911.907 601.77 908.937 608.087C906.995 612.245 903.836 615.715 899.878 618.037C892.342 622.395 872.794 630.389 864.061 634.218L797.775 663.687L709.137 704.081C693.274 711.236 682.101 717.502 665.482 723.295C655.25 725.212 647.562 724.439 638.287 719.289C627.471 713.284 622.115 703.365 615.746 693.265C610.81 685.437 605.901 677.587 600.989 669.746L562.483 609.086L508.107 524.779C492.786 501.352 476.864 478.254 462.342 454.307C453.381 439.53 437.533 425.155 449.209 406.937C452.061 402.45 455.989 398.746 460.635 396.161C473.384 389.03 492.569 380.996 506.179 374.844L583.781 339.706C605.814 329.464 627.919 319.375 650.093 309.439C661.863 304.076 678.414 295.28 690.528 292.608Z"/><path fill="#7AA7EC" stroke="#000000" stroke-width="10" d="M695.007 312.567C699.706 312.678 706.311 314.537 709.295 318.443C718.021 329.863 725.884 342.111 733.891 354.057C738.397 361.177 743.595 367.971 747.267 375.563C750.108 381.437 747.838 385.564 742.375 388.384C731.151 394.177 719.39 398.822 707.885 403.986L650.988 430.181L564.795 469.169C551.398 475.207 535.919 483.066 522.651 488.274C517.177 489.25 508.879 486.563 505.681 481.918C496.216 468.168 487.404 453.848 478.126 439.954C475.257 435.657 471.711 430.738 469.83 426.101C466.687 418.353 470.677 414.072 477.551 411.331C491.304 404.964 505.683 398.702 519.345 392.492L609.298 351.464L663.132 326.723C673.178 322.06 684.73 315.932 695.007 312.567Z"/><path fill="#FEFEFE" stroke="#000000" stroke-width="10" d="M693.797 318.554C696.064 318.415 698.512 318.534 700.796 318.586C701.649 319.103 703.451 320.188 704.1 320.89C708.078 325.29 711.402 330.511 714.668 335.482C723.04 348.223 731.757 360.787 739.864 373.695C740.876 375.307 742.499 378.674 742.49 380.422C742.486 381.294 739.473 384.254 738.522 384.456C730.665 388.217 722.356 391.616 714.358 395.035C702.787 399.987 691.31 405.159 679.935 410.546L591.24 451.108C568.626 461.446 545.566 472.292 522.838 482.268C517.064 483.481 513.964 483.074 510.063 478.19C506.49 473.515 503.303 468.523 500.214 463.483C492.369 450.686 483.119 438.562 475.676 425.56C472.55 420.098 474.775 418.665 479.664 416.391C498.559 407.599 517.675 399.192 536.705 390.673L607.016 358.689L665.636 331.785C674.896 327.493 684.46 322.357 693.797 318.554Z"/><path fill="#7AA7EC" stroke="#000000" stroke-width="10" d="M626.333 457.557C631.614 457.365 639.05 457.799 642.495 462.483C660.212 486.624 677.406 512.335 691.925 538.513C695.995 545.853 690.791 552.289 684.482 555.167C679.252 557.553 673.992 560.027 668.757 562.346L640.023 575.064C625.261 581.619 608.654 590.243 593.676 595.348C575.989 596.125 573.876 587.836 565.22 574.539L548.536 548.633C543.923 541.438 539.353 534.214 534.827 526.964C530.589 520.168 524.895 514.173 528.44 505.992C529.677 503.136 531.76 500.728 534.407 499.093C540.763 495.231 562.675 486.394 570.696 482.759C580.395 478.398 590.066 473.976 599.709 469.491C608.668 465.269 617.03 460.994 626.333 457.557Z"/><path fill="#FEFEFE" stroke="#000000" stroke-width="10" d="M628.45 463.025C631.058 462.881 633.951 463.067 636.306 464.29C638.341 465.346 639.693 467.245 641.008 469.056C646.382 476.46 685.756 536.765 686.965 540.92C687.455 542.605 687.284 545.463 686.193 546.914C683.173 550.932 599.8 587.712 591.318 589.847C585.97 589.9 582.358 588.965 579.182 584.446C569.807 571.104 560.708 557.289 552.315 543.302C546.438 533.507 535.504 520.926 532.086 510.331C537.459 501.512 542.319 501.227 551.319 497.486C556.903 495.109 562.451 492.647 567.96 490.103L603.988 473.672C610.687 470.569 621.852 465.019 628.45 463.025Z"/><path fill="#5B9BDB" stroke="#000000" stroke-width="10" d="M621.993 500.482C627.536 500.421 628.065 500.742 630.629 505.633C627.621 515.658 615.28 549.147 608.984 556.521C599.393 554.039 591.669 548.542 583.233 543.372C578.476 540.939 572.158 538.186 575.092 531.712C580.465 526.194 598.766 539.44 603.962 542.79C608.293 532.236 615.545 507.45 621.993 500.482Z"/><path fill="#7AA7EC" stroke="#000000" stroke-width="10" d="M695.934 566.587C702.026 566.354 708.98 567.788 712.909 572.786C717.433 578.539 721.233 584.766 725.072 590.987L740.783 616.455C747.148 626.59 754.542 636.802 760.078 647.498C761.11 649.037 760.44 654.875 759.551 655.973C756.174 660.051 750.992 662.779 746.243 664.948C726.036 674.176 705.573 682.839 685.35 692.04C677.873 695.442 669.95 699.145 662.158 701.648C654.588 702.507 647.22 701.263 642.706 694.48C628.783 673.556 615.578 652.121 602.151 630.873C600.576 628.381 598.74 625.563 597.769 622.785C593.211 608.175 610.749 603.781 620.376 599.534L648.83 586.882C659.434 582.148 686.485 568.756 695.934 566.587Z"/><path fill="#FFFFFF" stroke="#000000" stroke-width="10" d="M696.43 572.053C709.184 571.529 712.927 582.267 718.803 591.68L733.825 615.667C740.35 626.064 747.126 636.309 753.463 646.808C756.932 652.258 752.928 655.68 748.032 657.696C719.079 669.615 689.825 685.174 660.686 696.268C656.41 697.129 651.019 696.171 648.377 692.366C639.918 680.181 632.151 667.426 624.18 654.901L610.974 634.126C605.438 625.395 596.674 616.573 610.109 610.504C632.152 600.544 654.282 590.756 676.31 580.759C682.996 577.725 689.513 574.543 696.43 572.053Z"/><path fill="#5B9BDB" stroke="#000000" stroke-width="10" d="M693.348 604.471C701.967 606.019 699.483 613.076 697.037 618.934C691.897 631.245 687.01 650.307 678.666 660.451C670.169 658.16 659.541 652.843 651.29 649.007C647.288 647.367 640.903 644.851 643.178 639.791C646.692 631.975 670.573 645.464 674.109 647.185C677.705 635.441 682.516 622.263 687.181 610.854C688.73 607.065 689.695 605.744 693.348 604.471Z"/><path fill="#7AA7EC" stroke="#000000" stroke-width="10" d="M753.37 400.556C764.193 399.835 766.614 402.212 772.32 410.893C778.6 420.449 784.701 430.178 790.958 439.745C796.099 447.611 801.284 455.448 806.513 463.255C811.137 470.177 822.855 485.549 818.345 492.019C813.195 499.408 784.436 510.7 775.923 514.609C764.908 519.72 753.844 524.727 742.736 529.632C737.107 532.099 728.975 535.812 723.179 537.518C720.466 537.541 717.307 536.848 714.821 535.78C711.626 534.425 708.795 532.336 706.559 529.681C702.513 524.935 698.371 517.955 694.949 512.546L678.805 487.059C671.879 476.169 663.9 465.599 658.354 453.99C655.589 449.382 659.569 442.939 663.678 440.846C684.53 430.228 706.319 421.367 727.607 411.633C735.897 407.843 744.861 403.69 753.37 400.556Z"/><path fill="#FEFEFE" stroke="#000000" stroke-width="10" d="M756.155 405.486C760.25 405.688 762.509 407.113 764.78 410.454C781.189 434.617 797.866 459.11 812.535 484.323C815.417 489.277 808.432 493.779 804.748 495.447C793.138 500.703 781.104 506.386 769.277 511.077C754.88 516.788 735.645 528.908 720.943 531.845C710.806 529.71 706.472 519.965 701.383 511.884L686.616 488.5C679.412 477.141 671.914 466.194 664.628 454.916C663.067 452.501 663.032 450.851 663.715 448.145C665.286 446.19 670.353 443.456 672.685 442.364C696.988 430.984 721.902 420.954 746.156 409.405C749.279 407.918 752.898 406.636 756.155 405.486Z"/><path fill="#7AA7EC" stroke="#000000" stroke-width="10" d="M722.455 440.995C723.07 441.006 725.233 441.049 725.698 441.248C731.07 443.551 737.262 455.857 740.506 461.154C744.716 459.123 758.133 452.281 761.591 453.414C779.448 459.265 750.398 470.405 747.127 471.798C750.254 476.424 767.098 498.709 751.059 496.043C745.621 490.872 740.397 482.442 736.374 476.03C732.192 478.197 714.666 487.407 711.102 485.408C696.389 477.156 724.748 467.895 730.024 465.886C727.588 461.532 724.304 457.626 721.82 453.327C718.965 448.387 716.727 444.549 722.455 440.995Z"/><path fill="#7AA7EC" stroke="#000000" stroke-width="10" d="M827.102 509.135C831.858 509.09 836.145 510.366 839.207 514.148C843.327 519.24 846.839 524.778 850.411 530.263C855.929 538.74 861.392 547.254 866.798 555.803C873.166 565.886 880.663 577.356 886.06 587.983C887.75 591.31 886.524 597.426 884.893 600.588C884.054 602.215 879.122 605.345 877.199 606.223C865.243 611.677 853.048 616.915 841.068 622.362L812.211 635.497C805.252 638.663 794.677 643.7 787.443 645.438C776.461 643.304 772.652 635.368 767.023 626.788C754.188 607.223 741.645 587.422 729.311 567.542C725.283 561.052 727.911 552.315 734.796 549.092C761.543 536.928 788.229 524.562 815.097 512.669C818.65 511.096 823.262 509.672 827.102 509.135Z"/><path fill="#FEFEFE" stroke="#000000" stroke-width="10" d="M825.514 514.517C829.29 514.308 834.294 516.447 836.451 519.493C851.85 541.237 865.644 564.639 879.615 587.305C884.528 594.826 879.521 598.844 872.816 601.919C852.271 611.342 831.512 620.469 810.992 629.981C804.085 633.182 796.384 636.678 789.134 638.959C784.893 639.293 781.919 638.476 779.309 634.979C774.923 629.101 771.146 622.846 767.235 616.65L749.447 588.444C746.616 583.961 743.648 579.589 740.797 575.145C737.831 570.523 731.567 563.074 733.734 557.561C740.18 550.924 812.287 519.939 825.514 514.517Z"/><path fill="#7AA7EC" stroke="#000000" stroke-width="10" d="M830.92 558.521C833.394 559.362 836.911 560.828 837.971 563.462C838.476 564.72 838.522 565.83 837.917 567.069C835.327 572.368 792.908 589.597 784.712 592.618C779.308 592.301 776.214 589.51 777.632 583.914C781.797 578.109 822.264 561.678 830.92 558.521Z"/><path fill="#FEFEFE" stroke="#000000" stroke-width="10" d="M197.399 502.368C202.897 506.378 229.435 547.868 236.278 556.774C237.603 556.038 238.947 555.336 240.308 554.667C265.223 542.427 297.075 539 324.198 545.516C337.616 548.739 337.365 564.783 324.89 569.789C312.197 574.883 305.694 561.675 297.034 558.744C285.379 554.8 262.985 559.683 251.568 563.845C228.101 573.318 213.459 591.341 211.961 616.905C211.611 622.88 211.994 631.815 210.003 637.377C209.526 638.707 209.289 638.584 208.4 638.866C203.782 634.642 206.587 611.078 207.729 605.295C211.456 586.427 222.835 573.986 238.48 563.621C254.328 554.796 287.374 544.992 305.375 552.843C308.123 554.042 314.502 560.116 318.197 562.239L318.857 562.612C321.688 562.027 323.532 561.445 326.243 560.575C328.752 557.914 331.571 553.481 327.967 550.547C321.753 545.488 308.02 544.624 300.525 544.628C271.68 544.644 240.769 550.627 219.765 571.88C200.128 591.501 200.473 609.522 200.547 635.422C191.369 619.996 180.361 605.58 170.502 590.566C166.57 584.577 162.413 578.863 158.947 572.567C160.82 572.375 164.345 572.072 165.83 570.891C170.464 567.207 168.999 555.739 169.216 550.071C169.351 546.364 169.783 542.675 170.507 539.038C174.01 521.817 183.216 511.848 197.399 502.368Z"/><path fill="#FEFEFE" stroke="#000000" stroke-width="10" d="M292.776 640.436C296.377 641.195 326.405 687.966 330.352 694.031C333.907 692.575 337.498 691.209 341.122 689.935C366.156 681.2 394.375 680.252 420.396 685.655C423.621 686.325 427.056 690.532 427.994 693.603C430.071 700.973 425.034 707.327 418.035 709.121C405.823 712.251 397.177 699.651 386.877 697.444C378.368 695.62 362.351 698.376 354.026 700.247C324.068 706.979 303.99 730.506 303.897 761.471C303.757 767.095 305.594 774.66 302.956 779.023L302.153 779.06C296.339 772.412 298.754 753.616 300.183 745.714C303.522 727.248 313.854 714.196 329.143 703.882C345.492 694.454 377.764 685.981 396.544 691.74C402.505 693.568 406.903 699.38 415.42 701.794C418.848 700.524 424.111 697.919 423.477 693.53C423.331 692.527 422.143 690.56 421.14 690.056C404.784 681.834 382.171 685.209 364.372 686.808C342.945 689.762 319.177 698.949 306.513 716.764C295.054 732.883 290.643 752.533 293.595 771.873C287.521 764.392 281.743 755.25 276.364 747.217C269.262 736.609 262.089 725.931 255.677 714.895C266.016 710.302 262.779 705.488 263.023 695.254C263.652 668.839 270.115 653.955 292.776 640.436Z"/><path fill="#FEFEFE" stroke="#000000" stroke-width="10" d="M338.941 711.391C342.752 714.112 371.476 757.36 376.08 764.076C402.306 751.709 429.07 747.247 458.011 753.486C465.158 755.027 473.232 762.679 469.149 770.263C459.341 788.48 443.782 774.194 431.864 767.986C420.291 763.027 399.416 768.876 389.291 772.858C364.286 782.69 350.84 806.393 350.893 832.583C350.845 835.66 352.036 846.72 351.244 848.633L350.28 848.933C343.18 845.371 346.154 819.719 347.523 813.278C351.242 795.767 360.296 783.276 375.126 773.535C390.365 764.214 420.861 755.29 438.781 760.979C444.35 762.747 454.443 777.307 462.871 768.588C464.187 767.224 464.897 765.388 464.843 763.494C464.789 761.605 463.983 759.817 462.606 758.524C457.608 753.864 435.706 753.267 428.733 753.404C405.907 753.854 374.777 763.242 358.611 780.074C340.6 798.827 340.238 819.362 340.912 843.706C329.432 827.694 312.938 802.837 303.407 785.911C313.915 780.79 309.835 775.268 309.825 765.073C309.801 740.609 318.16 724.296 338.941 711.391Z"/><path fill="#FEFEFE" stroke="#000000" stroke-width="10" d="M245.103 572.362C247.923 573.399 279.158 620.546 282.576 625.661C309.226 614.571 332.164 610.903 361.005 612.889C368.161 613.382 376.161 613.027 381.177 619.09C383.392 621.737 384.364 625.208 383.847 628.62C383.374 631.819 381.314 635.14 378.523 636.834C362.131 646.777 354.332 629.786 344.126 628.144C327.22 625.424 297.412 630.533 283.186 639.999C266.366 650.924 258.562 668.649 257.689 688.262C257.478 692.997 258.839 706.451 255.015 708.868L254.177 708.351C250.104 701.7 252.485 682.696 253.792 674.866C256.798 656.865 266.144 645.123 280.731 634.828C297.826 624.054 333.024 617.081 352.976 621.966C360.68 623.852 366.863 637.898 377.75 628.191C380.012 626.174 380.122 621.683 377.78 619.813C369.956 613.566 357.447 615.135 347.992 614.624C320.589 615.102 286.291 620.428 265.577 639.661C248.156 657.045 246.363 678.369 246.481 701.595C239.71 693.06 232.538 682.154 226.414 672.967C221.025 664.88 212.975 653.047 208.85 644.459L213.966 641.704C218.541 632.596 216.263 621.102 218.123 610.885C221.661 591.45 229.978 583.328 245.103 572.362Z"/><path fill="#FEFEFE" stroke="#000000" stroke-width="10" d="M153.969 435.12C156.043 436.943 164.661 449.927 166.62 452.801L189.186 485.724C212.886 474.775 239.515 469.862 265.476 473.606C271.83 474.522 278.436 475.729 283.224 480.412C288.385 485.46 286.808 493.099 281.72 497.551C279.133 499.786 275.975 501.258 272.599 501.802C258.063 504.132 256.513 487.025 240.861 487.338C219.868 487.759 198.177 492.425 182.27 506.975C167.216 520.746 162.8 538.941 163.744 558.618C163.829 560.657 163.279 564.206 161.633 565.681C159.865 565.764 160.641 565.995 159.214 564.995C157.058 559.186 158.792 540.151 160.457 533.857C165.865 513.413 176.334 502.423 193.765 491.92C208.978 484.203 240.244 475.667 257.115 482.631C262.405 484.814 268.52 498.617 278.218 490.798C280.849 488.678 282.615 483.551 279.45 481.251C270.857 475.008 257.37 475.029 247.138 474.545C220.993 475.334 191.427 481.833 172.355 500.838C153.918 519.835 152.328 539.904 152.576 564.73C148.112 559.116 142.069 549.251 137.996 542.992L113.496 505.227C115.142 505.094 118.855 504.848 120.046 503.783C125.344 499.046 123.422 485.582 124.63 478.672C128.39 457.158 137.211 447.276 153.969 435.12Z"/><path fill="#5B9BDB" stroke="#000000" stroke-width="10" d="M261.88 366.382C266.83 366.31 266.947 367.356 269.525 371.226L477.161 682.188C480.574 687.393 482.588 688.604 478.591 693.945C475.047 693.14 473.637 690.886 471.653 688.007C450.362 656.966 429.395 625.705 408.756 594.227L308.916 445.038C302.903 436.023 260.941 375.164 259.636 369.955C259.848 368.22 260.661 367.671 261.88 366.382Z"/><path fill="#FFFFFF" stroke="#000000" stroke-width="10" d="M67.0803 308.401C70.3333 310.937 92.1455 344.408 95.4751 349.425C120.809 340.235 139.717 333.675 167.316 336.938C173.196 337.633 185.471 339.925 189.012 344.837C198.387 357.838 176.638 371.07 165.847 361.77C161.504 358.219 153.45 350.613 148.636 350.585C130.62 350.48 109.639 355.153 95.0032 366.068C81.652 376.394 75.8876 391.719 74.7828 407.9C74.5033 411.994 75.5698 425.177 72.5948 427.3L71.7571 426.685C69.239 420.726 69.2667 409.791 70.0607 403.42C71.3885 388.927 78.431 371.092 90.602 362.329C106.598 350.813 127.163 344.929 146.583 342.986C151.377 342.506 157.186 342.275 161.226 345.329C167.16 349.844 171.951 358.36 180.634 355.725C188.16 354.115 187.562 344.882 180.897 342.626C157.384 334.665 131.412 338.673 108.837 346.873C88.6379 354.209 77.1569 364.109 68.2323 383.097C66.6711 375.033 66.9605 358.657 66.9898 350.208L67.0803 308.401Z"/><path fill="#FFFFFF" stroke="#000000" stroke-width="10" d="M625.476 197.983C626.912 198.67 627.216 199.146 627.503 200.48C625.653 204.427 598.249 215.673 592.822 218.087C577.924 224.649 563.089 231.353 548.318 238.198C485.297 267.514 422.029 296.294 358.519 324.535C356.841 323.528 356.471 323.022 356.835 321.238C359.45 318.129 392.271 303.909 398.226 301.19L491.132 258.952C521.851 244.565 552.702 230.46 583.681 216.64C597.423 210.458 611.539 203.462 625.476 197.983Z"/><path fill="#FFFFFF" stroke="#000000" stroke-width="10" d="M595.823 156.966C597.471 157.431 598.204 157.908 598.97 159.347L598.53 160.558C595.387 163.612 562.466 177.618 555.516 180.747L485.129 212.562L389.794 255.745C369.714 264.876 350.665 274.004 330.253 282.496C328.282 282.064 327.708 281.002 327.858 279.288C330.636 276.076 356.204 265.38 361.91 262.811L417.586 237.643L595.823 156.966Z"/><path fill="#5B9BDB" stroke="#000000" stroke-width="10" d="M273.988 252.758C281.838 254.637 279.456 260.213 278.908 267.021C277.009 290.621 273.59 314.159 271.818 337.761C258.504 332.974 244.039 326.315 230.874 320.721C229.196 320.07 227.139 319.279 225.874 317.96C224.362 316.392 223.488 314.317 223.425 312.139C223.756 311.621 223.927 311.014 224.56 310.844C229.321 309.569 258.821 324.152 264.409 326.876C265.136 308.531 268.613 289.049 269.671 270.599C270.012 264.645 270.519 257.737 273.988 252.758Z"/><path fill="#FFFFFF" stroke="#000000" stroke-width="10" d="M557.531 283.977C558.866 284.316 559.711 284.738 559.988 286.07C558.169 289.544 538.054 297.693 533.638 299.678L494.895 317.133C458.538 333.945 421.956 350.264 385.159 366.089C384.038 365.201 383.058 363.856 382.138 362.729C393.684 356.766 407.055 351.136 418.933 345.785L479.749 318.506C503.801 307.793 533.452 293.034 557.531 283.977Z"/></svg>
